<svg width="232" height="281" viewBox="0 0 232 281" fill="none" xmlns="http://www.w3.org/2000/svg">
<g filter="url(#filter0_d_1469_1844)">
<path d="M81.1545 200.717C81.1155 200.734 81.0769 200.751 81.0389 200.767V178.761V177.138L79.4201 177.266C77.8912 177.388 76.3618 177.448 74.7713 177.448C38.2286 177.448 8.5 146.824 8.5 108.974C8.5 71.1248 38.2286 40.5 74.7713 40.5C75.1613 40.5 75.5564 40.5144 75.9748 40.5301L76.0098 40.5314C76.4079 40.5464 76.832 40.5623 77.2456 40.5623H77.3009L77.3559 40.5582C78.1366 40.5007 78.9262 40.5 79.7803 40.5C117.162 40.5 147.5 70.619 147.5 107.79C147.5 108.931 147.442 110.14 147.381 111.328L147.374 111.463L147.392 111.596C147.448 112.03 147.475 112.355 147.488 112.565C147.494 112.659 147.497 112.73 147.498 112.776C147.383 113.879 147.214 114.956 146.943 116.019L146.918 116.116L146.906 116.217C146.436 120.288 145.552 124.242 144.314 128.079L144.304 128.11L144.295 128.141C136.706 155.703 120.386 174.067 105.936 185.555C98.7103 191.299 91.961 195.317 87.0244 197.896C84.5568 199.185 82.5443 200.113 81.1545 200.717Z" stroke="white" stroke-width="3" shape-rendering="crispEdges"/>
</g>
<g filter="url(#filter1_d_1469_1844)">
<path d="M151.896 2.26707C151.925 2.25446 151.954 2.242 151.983 2.22968V23.7952V25.4185L153.601 25.2905C155.108 25.1714 156.616 25.1117 158.183 25.1117C194.205 25.1117 223.5 55.1693 223.5 92.3058C223.5 129.442 194.205 159.5 158.183 159.5C157.799 159.5 157.41 159.486 156.997 159.47L156.963 159.469C156.57 159.454 156.152 159.439 155.744 159.439H155.689L155.634 159.443C154.865 159.499 154.087 159.5 153.245 159.5C116.395 159.5 86.5 129.938 86.5 93.4681C86.5 92.3496 86.5574 91.1627 86.617 89.9969L86.624 89.8616L86.6065 89.7273C86.5514 89.3022 86.5248 88.9835 86.5119 88.7787C86.5063 88.6882 86.5033 88.62 86.5017 88.5746C86.6154 87.4937 86.7818 86.4389 87.0481 85.3985L87.0733 85.3003L87.085 85.1996C87.5489 81.2048 88.4192 77.3257 89.6398 73.561L89.6499 73.5298L89.6587 73.4982C97.138 46.4492 113.224 28.4253 127.468 17.1492C134.591 11.511 141.244 7.56751 146.11 5.03632C148.543 3.7711 150.526 2.85987 151.896 2.26707Z" stroke="white" stroke-width="3" shape-rendering="crispEdges"/>
</g>
<g filter="url(#filter2_d_1469_1844)">
<path d="M118.5 106C119.881 106 121 104.657 121 103C121 101.343 119.881 100 118.5 100C117.119 100 116 101.343 116 103C116 104.657 117.119 106 118.5 106Z" fill="white"/>
</g>
<g filter="url(#filter3_d_1469_1844)">
<path d="M110 114H124H138C138 114 123.605 129.75 110 114Z" fill="white"/>
</g>
<g filter="url(#filter4_d_1469_1844)">
<path d="M165.374 106C169.408 93.9084 165.681 79.6183 157 74" stroke="white" stroke-width="2.1913" stroke-miterlimit="10" shape-rendering="crispEdges"/>
</g>
<g filter="url(#filter5_d_1469_1844)">
<path d="M177.89 106C185.6 88.288 178.479 67.2867 162 59" stroke="white" stroke-width="3.1043" stroke-miterlimit="10" shape-rendering="crispEdges"/>
</g>
<g filter="url(#filter6_d_1469_1844)">
<path d="M155.7 106C158.923 98.8425 155.953 90.3836 149 87" stroke="white" stroke-width="1.2191" stroke-miterlimit="10" shape-rendering="crispEdges"/>
</g>
<g filter="url(#filter7_d_1469_1844)">
<path d="M4.06826 240.506C4.06826 240.165 4.13655 239.96 4.34137 239.755C4.47792 239.55 4.68276 239.482 4.95586 239.482H25.9843C26.3257 239.482 26.5988 239.55 26.7353 239.755C26.8719 239.96 27.0084 240.233 27.0084 240.506V245.968C27.0084 246.241 26.9402 246.446 26.7353 246.651C26.5305 246.856 26.3257 246.992 25.9843 246.992H12.6025V253.82H22.4341C22.7072 253.82 22.9803 253.888 23.1168 254.024C23.3216 254.161 23.3899 254.434 23.3899 254.775V260.033C23.3899 260.306 23.3216 260.51 23.1168 260.715C22.9803 260.92 22.7072 261.057 22.4341 261.057H12.5343V271.161C12.5343 271.776 12.1929 272.117 11.5102 272.117H4.8193C4.27311 272.049 4 271.707 4 271.161V240.506H4.06826Z" fill="white"/>
<path d="M29.3296 258.257C29.3296 256.892 29.5344 255.595 29.8758 254.366C30.2172 253.137 30.6951 251.976 31.3096 250.884C31.924 249.791 32.675 248.836 33.5626 247.948C34.4502 247.06 35.406 246.309 36.4984 245.695C37.5908 245.08 38.7515 244.603 39.9804 244.261C41.2093 243.92 42.5066 243.783 43.872 243.783C45.852 243.783 47.7636 244.125 49.4705 244.876C51.2456 245.627 52.7477 246.651 54.0449 247.948C55.3421 249.245 56.3662 250.747 57.1172 252.522C57.8683 254.297 58.2779 256.141 58.2779 258.189C58.2779 259.555 58.0731 260.852 57.7317 262.081C57.3903 263.31 56.9124 264.47 56.2979 265.563C55.6835 266.655 54.9325 267.611 54.0449 268.499C53.1573 269.386 52.2015 270.137 51.1091 270.752C50.0167 271.366 48.9243 271.844 47.6954 272.185C46.4665 272.527 45.1693 272.663 43.872 272.663C42.5066 272.663 41.2093 272.527 39.9804 272.185C38.7515 271.844 37.5908 271.366 36.4984 270.752C35.406 270.137 34.4502 269.386 33.5626 268.499C32.675 267.611 31.924 266.655 31.3096 265.563C30.6951 264.47 30.2172 263.31 29.8758 262.081C29.5344 260.92 29.3296 259.623 29.3296 258.257ZM37.386 258.257C37.386 259.213 37.5225 260.101 37.8639 260.988C38.137 261.808 38.6149 262.559 39.1611 263.173C39.7073 263.788 40.3901 264.265 41.1411 264.607C41.8921 264.948 42.7796 265.153 43.8037 265.153C44.7596 265.153 45.6471 264.948 46.3982 264.607C47.1492 264.265 47.8319 263.788 48.3781 263.173C48.9243 262.559 49.334 261.808 49.6071 260.988C49.8802 260.169 50.0167 259.213 50.0167 258.257C50.0167 257.302 49.8802 256.414 49.6071 255.595C49.334 254.775 48.9243 254.024 48.3781 253.342C47.8319 252.727 47.2175 252.181 46.3982 251.84C45.6471 251.498 44.7596 251.293 43.8037 251.293C42.8479 251.293 41.9604 251.498 41.1411 251.84C40.3901 252.181 39.7073 252.727 39.1611 253.342C38.6149 253.956 38.2052 254.707 37.8639 255.595C37.5225 256.414 37.386 257.302 37.386 258.257Z" fill="white"/>
<path d="M63.1941 244.671C63.3989 244.534 63.6037 244.398 63.8085 244.329C64.0133 244.261 64.2182 244.261 64.423 244.261H67.7685C68.0416 244.261 68.2464 244.329 68.4512 244.398C68.656 244.466 68.7925 244.602 68.9291 244.807C69.0656 244.944 69.1339 245.149 69.2705 245.353C69.3387 245.558 69.407 245.763 69.4753 245.968L70.1581 248.767C70.3629 248.289 70.7042 247.811 71.1139 247.197C71.5235 246.582 72.0697 246.104 72.6842 245.558C73.2986 245.08 74.118 244.602 75.0055 244.261C75.8931 243.92 76.9172 243.715 78.0779 243.715C79.7164 243.715 81.2868 244.056 82.6523 244.671C84.0177 245.285 85.1784 246.173 86.1342 247.333C87.0901 248.426 87.8411 249.723 88.3873 251.225C88.9335 252.727 89.2066 254.297 89.2066 256.004V270.41C89.2066 270.956 89.07 271.366 88.8652 271.707C88.5921 271.98 88.2507 272.117 87.7045 272.117H82.5157C81.9012 272.117 81.4233 271.98 81.2185 271.776C81.0136 271.571 80.8771 271.161 80.8771 270.547V256.209C80.8771 255.595 80.7406 254.98 80.4675 254.434C80.1944 253.888 79.7847 253.342 79.3068 252.932C78.8289 252.522 78.2827 252.181 77.7365 251.908C77.122 251.635 76.5075 251.566 75.8931 251.566C75.3469 251.566 74.8007 251.703 74.2545 251.908C73.7083 252.113 73.2304 252.454 72.7525 252.864C72.2746 253.273 71.9332 253.751 71.5918 254.366C71.2504 254.912 71.1139 255.526 71.0456 256.209V270.478C71.0456 270.751 70.9773 270.956 70.9091 271.229C70.8408 271.502 70.7043 271.639 70.4994 271.776C70.2946 271.912 70.158 271.98 69.9532 272.049C69.8167 272.117 69.6119 272.117 69.3388 272.117H64.3547C63.7403 272.117 63.2624 271.98 62.9893 271.639C62.7162 271.298 62.5796 270.888 62.5796 270.41V245.831C62.5796 245.558 62.6479 245.285 62.7844 245.08C62.921 244.876 63.0575 244.671 63.3306 244.534L63.1941 244.671Z" fill="white"/>
<path d="M93.0977 258.257C93.0977 256.892 93.3025 255.595 93.6438 254.366C93.9852 253.137 94.4632 251.976 95.0776 250.884C95.6921 249.791 96.4431 248.836 97.3307 247.948C98.2182 247.06 99.1741 246.309 100.266 245.695C101.359 245.08 102.519 244.603 103.748 244.261C104.977 243.92 106.275 243.783 107.64 243.783C109.62 243.783 111.532 244.125 113.239 244.876C115.014 245.627 116.516 246.651 117.813 247.948C119.11 249.245 120.134 250.747 120.885 252.522C121.636 254.297 122.046 256.141 122.046 258.189C122.046 259.555 121.841 260.852 121.5 262.081C121.158 263.31 120.68 264.47 120.066 265.563C119.452 266.655 118.701 267.611 117.813 268.499C116.925 269.386 115.97 270.137 114.877 270.752C113.785 271.366 112.692 271.844 111.463 272.185C110.235 272.527 108.937 272.663 107.64 272.663C106.275 272.663 104.977 272.527 103.748 272.185C102.519 271.844 101.359 271.366 100.266 270.752C99.1741 270.137 98.2182 269.386 97.3307 268.499C96.4431 267.611 95.6921 266.655 95.0776 265.563C94.4632 264.47 93.9852 263.31 93.6438 262.081C93.2342 260.92 93.0977 259.623 93.0977 258.257ZM101.086 258.257C101.086 259.213 101.222 260.101 101.564 260.988C101.837 261.808 102.315 262.559 102.861 263.173C103.407 263.788 104.09 264.265 104.841 264.607C105.592 264.948 106.479 265.153 107.504 265.153C108.459 265.153 109.347 264.948 110.098 264.607C110.849 264.265 111.532 263.788 112.078 263.173C112.624 262.559 113.034 261.808 113.307 260.988C113.58 260.169 113.716 259.213 113.716 258.257C113.716 257.302 113.58 256.414 113.307 255.595C113.034 254.775 112.624 254.024 112.078 253.342C111.532 252.727 110.917 252.181 110.098 251.84C109.347 251.498 108.459 251.293 107.504 251.293C106.548 251.293 105.66 251.498 104.841 251.84C104.09 252.181 103.407 252.727 102.861 253.342C102.315 253.956 101.905 254.707 101.564 255.595C101.222 256.414 101.086 257.302 101.086 258.257Z" fill="white"/>
<path d="M133.038 271.707C132.902 271.434 132.765 271.23 132.629 270.956C132.492 270.683 132.356 270.41 132.287 270.137C130.376 265.153 128.532 260.237 126.621 255.322C124.777 250.406 122.866 245.49 120.954 240.506C120.954 240.438 120.954 240.37 120.954 240.301C120.954 240.233 120.954 240.165 120.954 240.096C120.954 239.687 121.227 239.482 121.773 239.482H128.874C129.42 239.482 129.83 239.755 130.034 240.301L136.794 260.306L143.006 240.301C143.211 239.755 143.621 239.482 144.235 239.482H151.404C151.746 239.482 151.95 239.55 152.087 239.687C152.224 239.823 152.292 239.96 152.292 240.165C152.292 240.301 152.292 240.37 152.292 240.438V240.506L148.4 251.703L151.336 260.374L158.436 240.369C158.641 239.823 159.051 239.55 159.665 239.55H166.561C166.902 239.55 167.107 239.618 167.244 239.755C167.38 239.892 167.449 240.028 167.449 240.233C167.449 240.37 167.449 240.438 167.449 240.506V240.574C166.425 243.169 165.4 245.695 164.376 248.289C163.352 250.884 162.26 253.41 161.236 256.004C160.212 258.599 159.119 261.125 158.095 263.719C157.071 266.314 156.047 268.84 155.091 271.434C155.023 271.571 154.886 271.776 154.681 271.981C154.477 272.185 154.203 272.254 153.93 272.254H153.862H148.537C148.195 272.254 147.99 272.185 147.786 272.049C147.649 271.912 147.513 271.776 147.444 271.571L143.962 262.422C143.484 263.788 143.006 265.085 142.46 266.382C141.914 267.679 141.504 268.976 141.027 270.274C140.958 270.478 140.89 270.683 140.753 270.956C140.685 271.161 140.549 271.366 140.412 271.571C140.275 271.776 140.139 271.912 139.934 272.049C139.729 272.185 139.593 272.254 139.32 272.254H139.251H133.926C133.516 272.185 133.175 272.049 133.038 271.707Z" fill="white"/>
<path d="M190.867 268.84C189.57 270.001 188.136 270.956 186.497 271.639C184.859 272.322 183.152 272.663 181.377 272.663C179.397 272.663 177.485 272.322 175.71 271.571C173.935 270.82 172.364 269.796 170.999 268.499C169.633 267.201 168.609 265.699 167.79 263.924C166.971 262.149 166.629 260.237 166.629 258.189C166.629 256.892 166.766 255.663 167.107 254.434C167.449 253.205 167.858 252.113 168.473 251.02C169.019 249.996 169.77 248.972 170.589 248.085C171.409 247.197 172.364 246.446 173.389 245.831C174.413 245.217 175.505 244.739 176.734 244.329C177.963 243.92 179.192 243.783 180.557 243.783C181.786 243.783 182.947 243.92 184.108 244.261C185.268 244.603 186.292 245.012 187.316 245.627C188.341 246.241 189.228 246.924 190.047 247.743C190.867 248.562 191.618 249.45 192.232 250.406C192.847 251.362 193.325 252.454 193.598 253.546C193.871 254.639 194.076 255.8 194.076 256.96C194.076 257.711 194.076 258.326 194.076 258.804C194.076 259.281 193.939 259.691 193.734 259.964C193.529 260.237 193.188 260.442 192.71 260.579C192.232 260.715 191.549 260.715 190.594 260.715H174.686C174.822 261.671 175.095 262.422 175.573 263.037C176.051 263.651 176.529 264.197 177.144 264.539C177.758 264.88 178.373 265.153 178.987 265.358C179.67 265.494 180.284 265.631 180.83 265.631C181.377 265.631 181.923 265.563 182.469 265.494C183.015 265.426 183.561 265.221 184.108 265.085C184.654 264.88 185.132 264.675 185.541 264.47C185.951 264.197 186.292 263.992 186.565 263.719C186.77 263.514 186.975 263.378 187.18 263.31C187.385 263.241 187.521 263.173 187.726 263.173C187.931 263.173 188.136 263.241 188.341 263.378C188.545 263.514 188.75 263.719 189.023 263.924L191.345 266.587C191.481 266.792 191.618 266.928 191.686 267.133C191.754 267.338 191.754 267.474 191.754 267.611C191.754 267.884 191.686 268.157 191.481 268.362C191.276 268.498 191.072 268.703 190.867 268.84ZM180.284 250.542C179.738 250.542 179.192 250.679 178.646 250.884C178.099 251.089 177.622 251.43 177.144 251.771C176.666 252.113 176.256 252.591 175.846 253.069C175.505 253.546 175.164 254.024 174.959 254.571H186.224C185.883 254.024 185.61 253.478 185.2 253C184.859 252.522 184.449 252.113 183.971 251.703C183.493 251.362 182.947 251.02 182.401 250.815C181.786 250.611 181.035 250.542 180.284 250.542Z" fill="white"/>
<path d="M206.364 270.479C206.228 270.752 206.091 271.025 206.023 271.23C205.955 271.434 205.818 271.639 205.75 271.776C205.682 271.912 205.477 272.049 205.34 272.117C205.204 272.185 204.931 272.254 204.658 272.254H200.288C199.127 272.254 198.513 271.707 198.513 270.547V237.707C198.513 237.434 198.581 237.229 198.649 237.024C198.718 236.819 198.854 236.614 198.991 236.478C199.127 236.341 199.332 236.205 199.537 236.137C199.742 236.068 199.947 236 200.151 236H205.136C205.682 236 206.16 236.137 206.433 236.478C206.706 236.819 206.911 237.229 206.911 237.639V247.675C207.32 247.265 207.73 246.787 208.208 246.309C208.686 245.831 209.164 245.422 209.71 245.08C210.256 244.739 210.871 244.398 211.553 244.193C212.236 243.988 212.919 243.852 213.738 243.852C215.718 243.852 217.561 244.193 219.268 244.944C220.975 245.695 222.409 246.719 223.57 248.016C224.799 249.313 225.754 250.816 226.437 252.591C227.12 254.366 227.461 256.209 227.461 258.257C227.461 260.306 227.12 262.149 226.437 263.924C225.754 265.699 224.799 267.201 223.57 268.499C222.341 269.796 220.907 270.82 219.268 271.571C217.561 272.322 215.786 272.663 213.738 272.663C212.987 272.663 212.304 272.527 211.622 272.254C210.939 271.981 210.324 271.639 209.778 271.298C209.232 270.888 208.686 270.479 208.208 270.001C207.73 269.523 207.252 269.113 206.911 268.703L206.364 270.479ZM219.678 258.257C219.678 257.302 219.541 256.414 219.2 255.595C218.927 254.775 218.449 254.024 217.903 253.342C217.357 252.659 216.674 252.181 215.923 251.84C215.172 251.498 214.284 251.293 213.328 251.293C212.373 251.293 211.485 251.498 210.597 251.84C209.778 252.181 209.027 252.727 208.413 253.342C207.798 253.956 207.32 254.707 206.979 255.595C206.638 256.414 206.433 257.37 206.433 258.257V258.599C206.501 259.555 206.706 260.374 207.047 261.193C207.389 262.012 207.935 262.695 208.549 263.31C209.164 263.924 209.915 264.402 210.734 264.675C211.553 265.017 212.441 265.153 213.397 265.153C214.353 265.153 215.24 264.948 215.991 264.607C216.742 264.266 217.425 263.788 217.971 263.173C218.517 262.559 218.927 261.808 219.268 260.988C219.541 260.101 219.678 259.213 219.678 258.257Z" fill="white"/>
</g>
<g filter="url(#filter8_d_1469_1844)">
<path d="M145.495 116.826C145.496 116.841 145.497 116.855 145.497 116.867C145.422 117.367 145.347 117.856 145.271 118.348C145.189 118.882 145.107 119.419 145.024 119.97L145.02 119.997L145.017 120.024C144.591 123.79 143.791 127.447 142.669 130.997L142.66 131.025L142.653 131.054C140.408 139.289 135.954 147.989 132.225 154.785C105.294 148.331 86.5 122.305 86.5 92.7158C86.5 91.6617 86.5527 90.5427 86.6076 89.4425L86.6142 89.3107L86.5977 89.1797C86.5471 88.7797 86.5227 88.48 86.5109 88.2877C86.5071 88.2243 86.5046 88.1725 86.5029 88.1327C86.5781 87.6329 86.6532 87.1437 86.7289 86.6518L86.7291 86.6503C86.811 86.1173 86.8935 85.5809 86.976 85.0296L86.98 85.003L86.983 84.9763C87.4093 81.2099 88.209 77.5526 89.3306 74.0034L89.3396 73.9748L89.3475 73.946C91.5919 65.7134 98.3032 52.9214 102.259 45.7165C129.005 52.2468 145.5 82.4745 145.5 112.284C145.5 113.338 145.447 114.457 145.392 115.557L145.386 115.689L145.402 115.82C145.453 116.22 145.477 116.52 145.489 116.712C145.492 116.756 145.494 116.794 145.495 116.826Z" stroke="white" stroke-width="3" shape-rendering="crispEdges"/>
</g>
<defs>
<filter id="filter0_d_1469_1844" x="3" y="39" width="150" height="172" filterUnits="userSpaceOnUse" color-interpolation-filters="sRGB">
<feFlood flood-opacity="0" result="BackgroundImageFix"/>
<feColorMatrix in="SourceAlpha" type="matrix" values="0 0 0 0 0 0 0 0 0 0 0 0 0 0 0 0 0 0 127 0" result="hardAlpha"/>
<feOffset dy="4"/>
<feGaussianBlur stdDeviation="2"/>
<feComposite in2="hardAlpha" operator="out"/>
<feColorMatrix type="matrix" values="0 0 0 0 0 0 0 0 0 0 0 0 0 0 0 0 0 0 0.25 0"/>
<feBlend mode="normal" in2="BackgroundImageFix" result="effect1_dropShadow_1469_1844"/>
<feBlend mode="normal" in="SourceGraphic" in2="effect1_dropShadow_1469_1844" result="shape"/>
</filter>
<filter id="filter1_d_1469_1844" x="81" y="0" width="148" height="169" filterUnits="userSpaceOnUse" color-interpolation-filters="sRGB">
<feFlood flood-opacity="0" result="BackgroundImageFix"/>
<feColorMatrix in="SourceAlpha" type="matrix" values="0 0 0 0 0 0 0 0 0 0 0 0 0 0 0 0 0 0 127 0" result="hardAlpha"/>
<feOffset dy="4"/>
<feGaussianBlur stdDeviation="2"/>
<feComposite in2="hardAlpha" operator="out"/>
<feColorMatrix type="matrix" values="0 0 0 0 0 0 0 0 0 0 0 0 0 0 0 0 0 0 0.25 0"/>
<feBlend mode="normal" in2="BackgroundImageFix" result="effect1_dropShadow_1469_1844"/>
<feBlend mode="normal" in="SourceGraphic" in2="effect1_dropShadow_1469_1844" result="shape"/>
</filter>
<filter id="filter2_d_1469_1844" x="112" y="100" width="13" height="14" filterUnits="userSpaceOnUse" color-interpolation-filters="sRGB">
<feFlood flood-opacity="0" result="BackgroundImageFix"/>
<feColorMatrix in="SourceAlpha" type="matrix" values="0 0 0 0 0 0 0 0 0 0 0 0 0 0 0 0 0 0 127 0" result="hardAlpha"/>
<feOffset dy="4"/>
<feGaussianBlur stdDeviation="2"/>
<feComposite in2="hardAlpha" operator="out"/>
<feColorMatrix type="matrix" values="0 0 0 0 0 0 0 0 0 0 0 0 0 0 0 0 0 0 0.25 0"/>
<feBlend mode="normal" in2="BackgroundImageFix" result="effect1_dropShadow_1469_1844"/>
<feBlend mode="normal" in="SourceGraphic" in2="effect1_dropShadow_1469_1844" result="shape"/>
</filter>
<filter id="filter3_d_1469_1844" x="106" y="114" width="36" height="15" filterUnits="userSpaceOnUse" color-interpolation-filters="sRGB">
<feFlood flood-opacity="0" result="BackgroundImageFix"/>
<feColorMatrix in="SourceAlpha" type="matrix" values="0 0 0 0 0 0 0 0 0 0 0 0 0 0 0 0 0 0 127 0" result="hardAlpha"/>
<feOffset dy="4"/>
<feGaussianBlur stdDeviation="2"/>
<feComposite in2="hardAlpha" operator="out"/>
<feColorMatrix type="matrix" values="0 0 0 0 0 0 0 0 0 0 0 0 0 0 0 0 0 0 0.25 0"/>
<feBlend mode="normal" in2="BackgroundImageFix" result="effect1_dropShadow_1469_1844"/>
<feBlend mode="normal" in="SourceGraphic" in2="effect1_dropShadow_1469_1844" result="shape"/>
</filter>
<filter id="filter4_d_1469_1844" x="152.405" y="73.0801" width="19.6909" height="41.2666" filterUnits="userSpaceOnUse" color-interpolation-filters="sRGB">
<feFlood flood-opacity="0" result="BackgroundImageFix"/>
<feColorMatrix in="SourceAlpha" type="matrix" values="0 0 0 0 0 0 0 0 0 0 0 0 0 0 0 0 0 0 127 0" result="hardAlpha"/>
<feOffset dy="4"/>
<feGaussianBlur stdDeviation="2"/>
<feComposite in2="hardAlpha" operator="out"/>
<feColorMatrix type="matrix" values="0 0 0 0 0 0 0 0 0 0 0 0 0 0 0 0 0 0 0.25 0"/>
<feBlend mode="normal" in2="BackgroundImageFix" result="effect1_dropShadow_1469_1844"/>
<feBlend mode="normal" in="SourceGraphic" in2="effect1_dropShadow_1469_1844" result="shape"/>
</filter>
<filter id="filter5_d_1469_1844" x="157.303" y="57.6133" width="29.2478" height="57.0063" filterUnits="userSpaceOnUse" color-interpolation-filters="sRGB">
<feFlood flood-opacity="0" result="BackgroundImageFix"/>
<feColorMatrix in="SourceAlpha" type="matrix" values="0 0 0 0 0 0 0 0 0 0 0 0 0 0 0 0 0 0 127 0" result="hardAlpha"/>
<feOffset dy="4"/>
<feGaussianBlur stdDeviation="2"/>
<feComposite in2="hardAlpha" operator="out"/>
<feColorMatrix type="matrix" values="0 0 0 0 0 0 0 0 0 0 0 0 0 0 0 0 0 0 0.25 0"/>
<feBlend mode="normal" in2="BackgroundImageFix" result="effect1_dropShadow_1469_1844"/>
<feBlend mode="normal" in="SourceGraphic" in2="effect1_dropShadow_1469_1844" result="shape"/>
</filter>
<filter id="filter6_d_1469_1844" x="144.733" y="86.4521" width="16.8762" height="27.7983" filterUnits="userSpaceOnUse" color-interpolation-filters="sRGB">
<feFlood flood-opacity="0" result="BackgroundImageFix"/>
<feColorMatrix in="SourceAlpha" type="matrix" values="0 0 0 0 0 0 0 0 0 0 0 0 0 0 0 0 0 0 127 0" result="hardAlpha"/>
<feOffset dy="4"/>
<feGaussianBlur stdDeviation="2"/>
<feComposite in2="hardAlpha" operator="out"/>
<feColorMatrix type="matrix" values="0 0 0 0 0 0 0 0 0 0 0 0 0 0 0 0 0 0 0.25 0"/>
<feBlend mode="normal" in2="BackgroundImageFix" result="effect1_dropShadow_1469_1844"/>
<feBlend mode="normal" in="SourceGraphic" in2="effect1_dropShadow_1469_1844" result="shape"/>
</filter>
<filter id="filter7_d_1469_1844" x="0" y="236" width="231.461" height="44.6631" filterUnits="userSpaceOnUse" color-interpolation-filters="sRGB">
<feFlood flood-opacity="0" result="BackgroundImageFix"/>
<feColorMatrix in="SourceAlpha" type="matrix" values="0 0 0 0 0 0 0 0 0 0 0 0 0 0 0 0 0 0 127 0" result="hardAlpha"/>
<feOffset dy="4"/>
<feGaussianBlur stdDeviation="2"/>
<feComposite in2="hardAlpha" operator="out"/>
<feColorMatrix type="matrix" values="0 0 0 0 0 0 0 0 0 0 0 0 0 0 0 0 0 0 0.25 0"/>
<feBlend mode="normal" in2="BackgroundImageFix" result="effect1_dropShadow_1469_1844"/>
<feBlend mode="normal" in="SourceGraphic" in2="effect1_dropShadow_1469_1844" result="shape"/>
</filter>
<filter id="filter8_d_1469_1844" x="81" y="44" width="70" height="120.5" filterUnits="userSpaceOnUse" color-interpolation-filters="sRGB">
<feFlood flood-opacity="0" result="BackgroundImageFix"/>
<feColorMatrix in="SourceAlpha" type="matrix" values="0 0 0 0 0 0 0 0 0 0 0 0 0 0 0 0 0 0 127 0" result="hardAlpha"/>
<feOffset dy="4"/>
<feGaussianBlur stdDeviation="2"/>
<feComposite in2="hardAlpha" operator="out"/>
<feColorMatrix type="matrix" values="0 0 0 0 0 0 0 0 0 0 0 0 0 0 0 0 0 0 0.25 0"/>
<feBlend mode="normal" in2="BackgroundImageFix" result="effect1_dropShadow_1469_1844"/>
<feBlend mode="normal" in="SourceGraphic" in2="effect1_dropShadow_1469_1844" result="shape"/>
</filter>
</defs>
</svg>
